<svg version="1.1" xmlns="http://www.w3.org/2000/svg" xmlns:xlink="http://www.w3.org/1999/xlink" preserveAspectRatio="xMidYMid meet" viewBox="592 303 143 152"><g data-item-type="text" data-item="Business" id="logo__item--business" class="logo__item">
                <g class="logo__item__inner" transform="translate(596.1640625 447.3366685120069) scale(1 1) rotate(0 0 0)">
                    <text data-part-id="logo__item--business" dy="0" dominant-baseline="auto" alignment-baseline="auto" font-family="Montserrat" font-size="32px" fill="#6EBFAC" letter-spacing="0" font-weight="bold" font-style="normal" data-font-family="Montserrat" data-font-weight="bold" data-font-style="normal" data-ttf-url="/builder_assets/fontsttf/font-montserrat-bold-normal.ttf"><tspan xml:space="preserve">Vegaroo</tspan></text>
                </g>
            </g><g data-item-type="image" data-item="Image" data-logo-item="" id="logo__item--logo_0" class="logo__item">
    <g class="logo__item__inner" transform="translate(600.4560815565192 290) scale(1.285415944426002 1.285415944426002) rotate(0 0 0)">
        
<g>
	<g>
		<path fill-rule="evenodd" clip-rule="evenodd" fill="#6EBFAC" d="M7.073,13.627h67.929c2.509,0.66,1.556,1.611,1.043,2.611    l-5.426,8.949c-1,1.618-2.171,2.224-3.511,1.809l-41.779-0.02l31.257,52.361c0.93,1.34,1.006,2.678,0.237,4.014l-5.055,7.483    c-1.771,1.227-3.541,0.921-5.315-0.908L4.909,20.117C3.146,16.617,4.419,14.757,7.073,13.627z" data-part-id="logo__item--logo_0__0"></path>
		<path fill-rule="evenodd" clip-rule="evenodd" fill="#C6E3DC" d="M31.643,29.792h13.241c1.782,0.21,2.67,1.321,3.433,2.55    l11.082,18.775l21.386-36.234c0.52-1.125,1.408-1.903,2.949-2.009l9.182-0.067c3.585,0.543,3.293,2.876,2.447,5.464L62.811,74.375    c-1.931,2.203-3.964,2.811-6.225-0.085L31.515,32.083C30.709,31.151,30.749,30.393,31.643,29.792z" data-part-id="logo__item--logo_0__1"></path>
	</g>
</g>

    </g>
</g>
</svg>